<svg xmlns="http://www.w3.org/2000/svg" xmlns:xlink="http://www.w3.org/1999/xlink" width="500" zoomAndPan="magnify" viewBox="0 0 375 374.999991" height="500" preserveAspectRatio="xMidYMid meet" version="1.0"><defs><clipPath id="66f3c427fb"><path d="M 120.414062 116.695312 L 131.664062 116.695312 L 131.664062 135.445312 L 120.414062 135.445312 Z M 120.414062 116.695312 " clip-rule="nonzero"/></clipPath><clipPath id="25fa63a27f"><path d="M 0 0 L 187.5 0 L 187.5 187.5 L 0 187.5 Z M 0 0 " clip-rule="nonzero"/></clipPath><clipPath id="26a6b88606"><path d="M 187.5 0 L 375 0 L 375 187.5 L 187.5 187.5 Z M 187.5 0 " clip-rule="nonzero"/></clipPath><clipPath id="91331084ce"><path d="M 0 187.5 L 187.5 187.5 L 187.5 375 L 0 375 Z M 0 187.5 " clip-rule="nonzero"/></clipPath><clipPath id="36bd3cfffb"><path d="M 187.5 187.5 L 375 187.5 L 375 375 L 187.5 375 Z M 187.5 187.5 " clip-rule="nonzero"/></clipPath></defs><g clip-path="url(#66f3c427fb)"><path fill="#ffffff" d="M 129.257812 116.699219 L 122.816406 116.699219 C 121.492188 116.699219 120.414062 117.644531 120.414062 118.804688 L 120.414062 133.328125 C 120.414062 134.488281 121.492188 135.433594 122.816406 135.433594 L 129.261719 135.433594 C 130.585938 135.433594 131.664062 134.488281 131.664062 133.328125 L 131.664062 118.804688 C 131.664062 117.644531 130.585938 116.699219 129.257812 116.699219 Z M 130.960938 133.328125 C 130.960938 134.101562 130.199219 134.730469 129.261719 134.730469 L 122.816406 134.730469 C 121.878906 134.730469 121.117188 134.101562 121.117188 133.328125 L 121.117188 118.804688 C 121.117188 118.03125 121.878906 117.398438 122.816406 117.398438 L 129.261719 117.398438 C 130.199219 117.398438 130.960938 118.03125 130.960938 118.804688 Z M 130.960938 133.328125 " fill-opacity="1" fill-rule="nonzero"/></g><path fill="#ffffff" d="M 129.019531 123.097656 C 129.019531 123.054688 129.011719 123.015625 129 122.976562 C 129 122.972656 129 122.972656 129 122.972656 C 128.984375 122.933594 128.960938 122.894531 128.933594 122.859375 C 128.929688 122.859375 128.929688 122.855469 128.929688 122.855469 C 128.925781 122.855469 128.925781 122.855469 128.925781 122.851562 C 128.925781 122.851562 128.921875 122.851562 128.921875 122.847656 C 128.894531 122.820312 128.859375 122.796875 128.824219 122.777344 C 128.820312 122.777344 128.816406 122.773438 128.808594 122.769531 C 128.773438 122.753906 128.734375 122.746094 128.695312 122.742188 C 128.6875 122.742188 128.683594 122.742188 128.675781 122.742188 C 128.667969 122.742188 128.660156 122.742188 128.652344 122.742188 L 127.214844 122.816406 C 127.019531 122.824219 126.871094 122.988281 126.882812 123.183594 C 126.890625 123.375 127.046875 123.527344 127.25 123.515625 L 127.707031 123.492188 L 126.453125 124.636719 C 126.308594 124.765625 126.300781 124.988281 126.429688 125.132812 C 126.5 125.207031 126.59375 125.246094 126.6875 125.246094 C 126.773438 125.246094 126.859375 125.214844 126.925781 125.15625 L 128.234375 123.960938 L 128.1875 124.496094 C 128.167969 124.691406 128.308594 124.859375 128.503906 124.878906 C 128.515625 124.878906 128.523438 124.878906 128.535156 124.878906 C 128.714844 124.878906 128.867188 124.742188 128.882812 124.5625 L 129.019531 123.125 C 129.019531 123.121094 129.015625 123.117188 129.019531 123.113281 C 129.019531 123.109375 129.019531 123.101562 129.019531 123.097656 Z M 129.019531 123.097656 " fill-opacity="1" fill-rule="nonzero"/><path fill="#ffffff" d="M 125.257812 125.726562 L 123.835938 127.023438 L 123.878906 126.488281 C 123.898438 126.292969 123.753906 126.125 123.5625 126.105469 C 123.367188 126.089844 123.199219 126.234375 123.179688 126.425781 L 123.058594 127.855469 C 123.058594 127.859375 123.058594 127.863281 123.058594 127.863281 C 123.058594 127.871094 123.058594 127.875 123.058594 127.878906 C 123.058594 127.921875 123.0625 127.960938 123.078125 128 C 123.078125 128.003906 123.078125 128.003906 123.082031 128.007812 C 123.09375 128.046875 123.117188 128.085938 123.148438 128.121094 C 123.152344 128.125 123.15625 128.125 123.15625 128.128906 C 123.171875 128.144531 123.1875 128.15625 123.203125 128.167969 C 123.210938 128.175781 123.222656 128.179688 123.234375 128.1875 C 123.242188 128.191406 123.253906 128.199219 123.265625 128.207031 C 123.277344 128.210938 123.289062 128.214844 123.300781 128.21875 C 123.3125 128.222656 123.324219 128.226562 123.335938 128.226562 C 123.347656 128.230469 123.359375 128.230469 123.371094 128.230469 C 123.382812 128.234375 123.390625 128.234375 123.402344 128.234375 L 124.953125 128.261719 C 124.957031 128.261719 124.957031 128.261719 124.960938 128.261719 C 125.152344 128.261719 125.308594 128.109375 125.3125 127.917969 C 125.316406 127.726562 125.160156 127.566406 124.964844 127.5625 L 124.296875 127.550781 L 125.730469 126.246094 C 125.871094 126.113281 125.882812 125.890625 125.753906 125.75 C 125.621094 125.605469 125.398438 125.597656 125.257812 125.726562 Z M 125.257812 125.726562 " fill-opacity="1" fill-rule="nonzero"/><g clip-path="url(#25fa63a27f)"><path fill="#1e90ff" d="M 187.546875 47.121094 C 187.546875 21.125 166.476562 0.0546875 140.480469 0.0546875 C 112.871094 0.0546875 74.679688 0.0546875 47.066406 0.0546875 C 21.074219 0.0546875 0 21.125 0 47.121094 C 0 74.730469 0 112.921875 0 140.535156 C 0 166.527344 21.074219 187.601562 47.066406 187.601562 C 74.679688 187.601562 112.871094 187.601562 140.480469 187.601562 C 166.476562 187.601562 187.546875 166.527344 187.546875 140.535156 Z M 164.105469 47.121094 L 164.105469 140.535156 C 164.105469 153.582031 153.527344 164.15625 140.480469 164.15625 C 140.480469 164.15625 47.066406 164.15625 47.066406 164.15625 C 34.019531 164.15625 23.445312 153.582031 23.445312 140.535156 C 23.445312 140.535156 23.445312 47.121094 23.445312 47.121094 C 23.445312 34.074219 34.019531 23.496094 47.066406 23.496094 C 47.066406 23.496094 140.480469 23.496094 140.480469 23.496094 C 153.527344 23.496094 164.105469 34.074219 164.105469 47.121094 Z M 164.105469 47.121094 " fill-opacity="1" fill-rule="evenodd"/></g><g clip-path="url(#26a6b88606)"><path fill="#007bff" d="M 375.046875 47.121094 C 375.046875 21.125 353.976562 0.0546875 327.980469 0.0546875 C 300.371094 0.0546875 262.179688 0.0546875 234.566406 0.0546875 C 208.574219 0.0546875 187.5 21.125 187.5 47.121094 C 187.5 74.730469 187.5 112.921875 187.5 140.535156 C 187.5 166.527344 208.574219 187.601562 234.566406 187.601562 C 262.179688 187.601562 300.371094 187.601562 327.980469 187.601562 C 353.976562 187.601562 375.046875 166.527344 375.046875 140.535156 Z M 351.605469 47.121094 L 351.605469 140.535156 C 351.605469 153.582031 341.027344 164.15625 327.980469 164.15625 C 327.980469 164.15625 234.566406 164.15625 234.566406 164.15625 C 221.519531 164.15625 210.945312 153.582031 210.945312 140.535156 C 210.945312 140.535156 210.945312 47.121094 210.945312 47.121094 C 210.945312 34.074219 221.519531 23.496094 234.566406 23.496094 C 234.566406 23.496094 327.980469 23.496094 327.980469 23.496094 C 341.027344 23.496094 351.605469 34.074219 351.605469 47.121094 Z M 351.605469 47.121094 " fill-opacity="1" fill-rule="evenodd"/></g><g clip-path="url(#91331084ce)"><path fill="#1e90ff" d="M 187.546875 234.621094 C 187.546875 208.625 166.476562 187.554688 140.480469 187.554688 C 112.871094 187.554688 74.679688 187.554688 47.066406 187.554688 C 21.074219 187.554688 0 208.625 0 234.621094 C 0 262.230469 0 300.421875 0 328.035156 C 0 354.027344 21.074219 375.101562 47.066406 375.101562 C 74.679688 375.101562 112.871094 375.101562 140.480469 375.101562 C 166.476562 375.101562 187.546875 354.027344 187.546875 328.035156 Z M 164.105469 234.621094 L 164.105469 328.035156 C 164.105469 341.082031 153.527344 351.65625 140.480469 351.65625 C 140.480469 351.65625 47.066406 351.65625 47.066406 351.65625 C 34.019531 351.65625 23.445312 341.082031 23.445312 328.035156 C 23.445312 328.035156 23.445312 234.621094 23.445312 234.621094 C 23.445312 221.574219 34.019531 210.996094 47.066406 210.996094 C 47.066406 210.996094 140.480469 210.996094 140.480469 210.996094 C 153.527344 210.996094 164.105469 221.574219 164.105469 234.621094 Z M 164.105469 234.621094 " fill-opacity="1" fill-rule="evenodd"/></g><g clip-path="url(#36bd3cfffb)"><path fill="#1e90ff" d="M 375.046875 234.621094 C 375.046875 208.625 353.976562 187.554688 327.980469 187.554688 C 300.371094 187.554688 262.179688 187.554688 234.566406 187.554688 C 208.574219 187.554688 187.5 208.625 187.5 234.621094 C 187.5 262.230469 187.5 300.421875 187.5 328.035156 C 187.5 354.027344 208.574219 375.101562 234.566406 375.101562 C 262.179688 375.101562 300.371094 375.101562 327.980469 375.101562 C 353.976562 375.101562 375.046875 354.027344 375.046875 328.035156 Z M 351.605469 234.621094 L 351.605469 328.035156 C 351.605469 341.082031 341.027344 351.65625 327.980469 351.65625 C 327.980469 351.65625 234.566406 351.65625 234.566406 351.65625 C 221.519531 351.65625 210.945312 341.082031 210.945312 328.035156 C 210.945312 328.035156 210.945312 234.621094 210.945312 234.621094 C 210.945312 221.574219 221.519531 210.996094 234.566406 210.996094 C 234.566406 210.996094 327.980469 210.996094 327.980469 210.996094 C 341.027344 210.996094 351.605469 221.574219 351.605469 234.621094 Z M 351.605469 234.621094 " fill-opacity="1" fill-rule="evenodd"/></g></svg>