<svg xmlns="http://www.w3.org/2000/svg" xmlns:xlink="http://www.w3.org/1999/xlink" width="100" zoomAndPan="magnify" viewBox="0 0 75 74.999997" height="100" preserveAspectRatio="xMidYMid meet" version="1.0"><defs><clipPath id="35628348a4"><path d="M 16.195312 47.164062 L 27.445312 47.164062 L 27.445312 58.414062 L 16.195312 58.414062 Z M 16.195312 47.164062 " clip-rule="nonzero"/></clipPath></defs><g clip-path="url(#35628348a4)"><path fill="#000000" d="M 27.382812 48.226562 L 26.835938 48.773438 C 27.054688 49.039062 27.042969 49.433594 26.792969 49.683594 L 26.636719 49.839844 C 26.960938 50.238281 26.96875 50.820312 26.628906 51.21875 L 25.359375 52.710938 L 25.371094 52.722656 C 25.605469 52.957031 25.605469 53.339844 25.371094 53.574219 C 25.253906 53.691406 25.101562 53.75 24.949219 53.75 C 24.792969 53.75 24.640625 53.691406 24.523438 53.574219 L 21.042969 50.089844 C 20.808594 49.855469 20.808594 49.476562 21.042969 49.242188 C 21.277344 49.007812 21.65625 49.007812 21.890625 49.242188 L 21.902344 49.253906 L 23.398438 47.984375 C 23.792969 47.648438 24.378906 47.652344 24.773438 47.976562 L 24.929688 47.820312 C 25.179688 47.570312 25.574219 47.558594 25.839844 47.777344 L 26.386719 47.234375 C 26.457031 47.164062 26.574219 47.164062 26.644531 47.234375 L 27.382812 47.972656 C 27.414062 48.003906 27.433594 48.050781 27.433594 48.101562 C 27.433594 48.148438 27.414062 48.195312 27.382812 48.226562 Z M 22.925781 53.355469 C 23.210938 53.640625 23.210938 54.105469 22.925781 54.390625 L 22.203125 55.109375 L 22.59375 55.5 C 22.828125 55.734375 22.828125 56.117188 22.59375 56.351562 C 22.476562 56.46875 22.324219 56.527344 22.171875 56.527344 C 22.015625 56.527344 21.863281 56.46875 21.746094 56.351562 L 21.734375 56.339844 L 20.242188 57.605469 C 20.039062 57.777344 19.792969 57.863281 19.542969 57.863281 C 19.300781 57.863281 19.058594 57.777344 18.863281 57.617188 L 18.707031 57.769531 C 18.574219 57.902344 18.398438 57.96875 18.226562 57.96875 C 18.070312 57.96875 17.921875 57.917969 17.796875 57.8125 L 17.25 58.359375 C 17.214844 58.394531 17.171875 58.414062 17.121094 58.414062 C 17.074219 58.414062 17.027344 58.394531 16.996094 58.359375 L 16.253906 57.621094 C 16.222656 57.585938 16.203125 57.539062 16.203125 57.492188 C 16.203125 57.445312 16.222656 57.398438 16.253906 57.363281 L 16.800781 56.820312 C 16.582031 56.550781 16.59375 56.15625 16.84375 55.90625 L 17 55.753906 C 16.675781 55.355469 16.671875 54.769531 17.007812 54.375 L 18.277344 52.878906 L 18.265625 52.867188 C 18.03125 52.632812 18.03125 52.253906 18.265625 52.019531 C 18.5 51.785156 18.878906 51.785156 19.113281 52.019531 L 19.503906 52.410156 L 20.226562 51.6875 C 20.507812 51.40625 20.972656 51.40625 21.257812 51.6875 C 21.542969 51.972656 21.542969 52.4375 21.257812 52.722656 L 20.539062 53.445312 L 21.171875 54.078125 L 21.890625 53.355469 C 22.175781 53.070312 22.640625 53.070312 22.925781 53.355469 Z M 19.761719 52.667969 L 20.28125 53.1875 L 21.003906 52.46875 C 21.144531 52.324219 21.144531 52.089844 21.003906 51.945312 C 20.859375 51.800781 20.625 51.800781 20.480469 51.945312 Z M 22.667969 53.613281 C 22.523438 53.46875 22.292969 53.46875 22.148438 53.613281 L 21.425781 54.332031 L 21.949219 54.855469 L 22.667969 54.132812 C 22.8125 53.992188 22.8125 53.757812 22.667969 53.613281 Z M 18.933594 50.167969 C 18.96875 50.203125 19.015625 50.222656 19.0625 50.222656 C 19.109375 50.222656 19.15625 50.203125 19.191406 50.167969 C 19.261719 50.097656 19.261719 49.984375 19.191406 49.914062 L 18.738281 49.457031 C 18.667969 49.386719 18.550781 49.386719 18.480469 49.457031 C 18.410156 49.53125 18.410156 49.644531 18.480469 49.714844 Z M 19.9375 49.378906 C 19.96875 49.441406 20.03125 49.480469 20.097656 49.480469 C 20.125 49.480469 20.152344 49.472656 20.179688 49.460938 C 20.269531 49.417969 20.304688 49.308594 20.261719 49.21875 L 19.976562 48.644531 C 19.933594 48.554688 19.824219 48.515625 19.734375 48.5625 C 19.644531 48.605469 19.609375 48.714844 19.652344 48.804688 Z M 17.664062 50.957031 L 18.242188 51.238281 C 18.265625 51.25 18.292969 51.257812 18.320312 51.257812 C 18.386719 51.257812 18.453125 51.21875 18.484375 51.15625 C 18.527344 51.066406 18.492188 50.957031 18.402344 50.914062 L 17.824219 50.628906 C 17.734375 50.585938 17.628906 50.625 17.582031 50.714844 C 17.539062 50.804688 17.574219 50.910156 17.664062 50.957031 Z M 24.703125 55.425781 C 24.632812 55.351562 24.515625 55.351562 24.445312 55.425781 C 24.375 55.496094 24.375 55.609375 24.445312 55.679688 L 24.898438 56.132812 C 24.933594 56.167969 24.980469 56.1875 25.027344 56.1875 C 25.074219 56.1875 25.121094 56.167969 25.15625 56.132812 C 25.226562 56.0625 25.226562 55.949219 25.15625 55.878906 Z M 23.703125 56.214844 C 23.65625 56.125 23.546875 56.085938 23.457031 56.132812 C 23.367188 56.175781 23.332031 56.285156 23.375 56.375 L 23.660156 56.949219 C 23.691406 57.011719 23.753906 57.050781 23.820312 57.050781 C 23.847656 57.050781 23.875 57.042969 23.902344 57.03125 C 23.992188 56.988281 24.027344 56.878906 23.984375 56.789062 Z M 25.972656 54.636719 L 25.394531 54.355469 C 25.308594 54.308594 25.199219 54.347656 25.152344 54.4375 C 25.109375 54.527344 25.144531 54.632812 25.234375 54.679688 L 25.8125 54.960938 C 25.835938 54.972656 25.863281 54.980469 25.890625 54.980469 C 25.957031 54.980469 26.023438 54.941406 26.054688 54.878906 C 26.097656 54.789062 26.0625 54.679688 25.972656 54.636719 Z M 25.972656 54.636719 " fill-opacity="1" fill-rule="nonzero"/></g><path fill="#dd1414" d="M 74.585938 7.105469 L 70.945312 10.742188 C 72.40625 12.523438 72.328125 15.152344 70.667969 16.8125 L 69.628906 17.851562 C 71.789062 20.496094 71.820312 24.390625 69.570312 27.042969 L 61.109375 36.996094 L 61.191406 37.078125 C 62.753906 38.636719 62.753906 41.175781 61.191406 42.738281 C 60.410156 43.519531 59.386719 43.910156 58.363281 43.910156 C 57.335938 43.910156 56.3125 43.519531 55.53125 42.738281 L 32.324219 19.527344 C 30.761719 17.964844 30.765625 15.425781 32.324219 13.867188 C 33.878906 12.308594 36.421875 12.304688 37.984375 13.867188 L 38.066406 13.949219 L 48.019531 5.488281 C 50.667969 3.238281 54.5625 3.273438 57.210938 5.429688 L 58.246094 4.390625 C 59.910156 2.730469 62.539062 2.652344 64.316406 4.113281 L 67.957031 0.472656 C 68.410156 0.0195312 69.210938 0.0195312 69.664062 0.472656 L 74.585938 5.394531 C 74.8125 5.625 74.941406 5.929688 74.941406 6.25 C 74.941406 6.570312 74.8125 6.878906 74.585938 7.105469 Z M 44.875 41.296875 C 46.777344 43.199219 46.773438 46.289062 44.875 48.1875 L 40.074219 52.992188 L 42.675781 55.59375 C 44.234375 57.15625 44.234375 59.695312 42.675781 61.253906 C 41.894531 62.035156 40.871094 62.425781 39.84375 62.425781 C 38.820312 62.425781 37.792969 62.035156 37.015625 61.253906 L 36.933594 61.171875 L 26.980469 69.632812 C 25.640625 70.765625 23.984375 71.328125 22.328125 71.328125 C 20.703125 71.328125 19.101562 70.757812 17.792969 69.6875 L 16.75 70.726562 C 15.867188 71.613281 14.707031 72.054688 13.542969 72.054688 C 12.523438 72.054688 11.515625 71.691406 10.679688 71.007812 L 7.042969 74.648438 C 6.820312 74.875 6.511719 75 6.191406 75 C 5.871094 75 5.5625 74.875 5.335938 74.644531 L 0.414062 69.722656 C 0.1875 69.496094 0.0585938 69.191406 0.0585938 68.871094 C 0.0585938 68.550781 0.1875 68.242188 0.414062 68.015625 L 4.054688 64.375 C 2.59375 62.597656 2.671875 59.96875 4.332031 58.308594 L 5.371094 57.269531 C 3.210938 54.625 3.179688 50.726562 5.429688 48.078125 L 13.890625 38.125 L 13.808594 38.042969 C 12.246094 36.484375 12.246094 33.941406 13.808594 32.382812 C 15.367188 30.824219 17.90625 30.820312 19.46875 32.382812 L 22.070312 34.984375 L 26.875 30.179688 C 28.773438 28.28125 31.863281 28.28125 33.765625 30.179688 C 35.664062 32.082031 35.664062 35.175781 33.765625 37.074219 L 28.960938 41.875 L 33.183594 46.097656 L 37.988281 41.292969 C 39.886719 39.398438 42.976562 39.398438 44.875 41.296875 Z M 23.777344 36.691406 L 27.253906 40.167969 L 32.058594 35.367188 C 33.015625 34.410156 33.015625 32.847656 32.058594 31.890625 C 31.097656 30.933594 29.539062 30.929688 28.582031 31.890625 Z M 43.167969 43.003906 C 42.210938 42.046875 40.652344 42.046875 39.691406 43.003906 L 34.890625 47.808594 L 38.367188 51.285156 L 43.167969 46.480469 C 44.125 45.523438 44.125 43.964844 43.167969 43.003906 Z M 18.273438 20.042969 C 18.507812 20.277344 18.816406 20.394531 19.125 20.394531 C 19.4375 20.394531 19.746094 20.277344 19.980469 20.042969 C 20.453125 19.570312 20.453125 18.804688 19.980469 18.332031 L 16.957031 15.308594 C 16.484375 14.839844 15.722656 14.839844 15.25 15.308594 C 14.777344 15.78125 14.777344 16.546875 15.25 17.019531 Z M 24.949219 14.777344 C 25.160156 15.207031 25.589844 15.453125 26.035156 15.453125 C 26.210938 15.453125 26.394531 15.414062 26.566406 15.328125 C 27.164062 15.035156 27.410156 14.308594 27.117188 13.710938 L 25.230469 9.875 C 24.9375 9.273438 24.207031 9.03125 23.613281 9.324219 C 23.015625 9.617188 22.769531 10.339844 23.0625 10.941406 Z M 9.8125 25.292969 L 13.652344 27.175781 C 13.824219 27.261719 14.003906 27.300781 14.183594 27.300781 C 14.628906 27.300781 15.058594 27.054688 15.265625 26.625 C 15.558594 26.027344 15.3125 25.304688 14.714844 25.007812 L 10.878906 23.125 C 10.285156 22.832031 9.558594 23.074219 9.261719 23.675781 C 8.96875 24.273438 9.214844 24.996094 9.8125 25.292969 Z M 56.726562 55.078125 C 56.253906 54.609375 55.492188 54.609375 55.019531 55.078125 C 54.546875 55.550781 54.546875 56.316406 55.019531 56.789062 L 58.042969 59.808594 C 58.277344 60.046875 58.585938 60.164062 58.894531 60.164062 C 59.207031 60.164062 59.515625 60.046875 59.75 59.808594 C 60.222656 59.339844 60.222656 58.574219 59.75 58.101562 Z M 50.050781 60.34375 C 49.757812 59.746094 49.035156 59.5 48.433594 59.792969 C 47.835938 60.085938 47.589844 60.808594 47.882812 61.410156 L 49.769531 65.246094 C 49.980469 65.675781 50.410156 65.921875 50.855469 65.921875 C 51.03125 65.921875 51.214844 65.882812 51.386719 65.796875 C 51.984375 65.503906 52.230469 64.777344 51.9375 64.179688 Z M 65.1875 49.828125 L 61.347656 47.941406 C 60.753906 47.652344 60.027344 47.894531 59.730469 48.492188 C 59.4375 49.09375 59.683594 49.816406 60.28125 50.109375 L 64.121094 51.996094 C 64.292969 52.082031 64.472656 52.121094 64.652344 52.121094 C 65.097656 52.121094 65.527344 51.875 65.734375 51.445312 C 66.03125 50.847656 65.785156 50.125 65.1875 49.828125 Z M 65.1875 49.828125 " fill-opacity="1" fill-rule="nonzero"/></svg>