<svg xmlns="http://www.w3.org/2000/svg" xmlns:xlink="http://www.w3.org/1999/xlink" width="500" zoomAndPan="magnify" viewBox="0 0 375 374.999991" height="500" preserveAspectRatio="xMidYMid meet" version="1.0"><defs><clipPath id="5a779ad5b4"><path d="M 88.171875 31.566406 L 125.671875 31.566406 L 125.671875 69.066406 L 88.171875 69.066406 Z M 88.171875 31.566406 " clip-rule="nonzero"/></clipPath></defs><g clip-path="url(#5a779ad5b4)"><path fill="#ffffff" d="M 88.621094 40.800781 C 88.976562 36.089844 92.695312 32.371094 97.40625 32.015625 C 100.585938 31.773438 104.164062 31.566406 107.0625 31.566406 C 109.960938 31.566406 113.539062 31.773438 116.71875 32.015625 C 121.433594 32.371094 125.148438 36.089844 125.503906 40.800781 C 125.746094 43.980469 125.953125 47.558594 125.953125 50.457031 C 125.953125 53.359375 125.746094 56.9375 125.503906 60.117188 C 125.148438 64.828125 121.433594 68.542969 116.71875 68.902344 C 113.539062 69.140625 109.960938 69.347656 107.0625 69.347656 C 104.164062 69.347656 100.585938 69.140625 97.40625 68.902344 C 92.695312 68.542969 88.976562 64.828125 88.621094 60.117188 C 88.378906 56.9375 88.171875 53.359375 88.171875 50.457031 C 88.171875 47.558594 88.378906 43.980469 88.621094 40.800781 Z M 88.621094 40.800781 " fill-opacity="1" fill-rule="nonzero"/></g><path fill="#ffffff" d="M 111.75 41.789062 C 110.066406 41.789062 108.703125 43.152344 108.703125 44.835938 C 108.703125 46.515625 110.066406 47.882812 111.75 47.882812 C 113.429688 47.882812 114.792969 46.515625 114.792969 44.835938 C 114.792969 43.152344 113.429688 41.789062 111.75 41.789062 Z M 107.296875 44.835938 C 107.296875 42.375 109.289062 40.382812 111.75 40.382812 C 114.207031 40.382812 116.199219 42.375 116.199219 44.835938 C 116.199219 47.292969 114.207031 49.285156 111.75 49.285156 C 109.289062 49.285156 107.296875 47.292969 107.296875 44.835938 Z M 107.296875 44.835938 " fill-opacity="1" fill-rule="evenodd"/><path fill="#ffffff" d="M 102.375 45.539062 C 100.695312 45.539062 99.332031 46.902344 99.332031 48.585938 C 99.332031 50.265625 100.695312 51.628906 102.375 51.628906 C 104.058594 51.628906 105.421875 50.265625 105.421875 48.585938 C 105.421875 46.902344 104.058594 45.539062 102.375 45.539062 Z M 97.925781 48.585938 C 97.925781 46.125 99.917969 44.132812 102.375 44.132812 C 104.835938 44.132812 106.828125 46.125 106.828125 48.585938 C 106.828125 51.042969 104.835938 53.035156 102.375 53.035156 C 99.917969 53.035156 97.925781 51.042969 97.925781 48.585938 Z M 97.925781 48.585938 " fill-opacity="1" fill-rule="evenodd"/><path fill="#ffffff" d="M 111.75 42.257812 C 112.136719 42.257812 112.453125 42.574219 112.453125 42.960938 L 112.453125 46.710938 C 112.453125 47.097656 112.136719 47.414062 111.75 47.414062 C 111.359375 47.414062 111.046875 47.097656 111.046875 46.710938 L 111.046875 42.960938 C 111.046875 42.574219 111.359375 42.257812 111.75 42.257812 Z M 111.75 42.257812 " fill-opacity="1" fill-rule="evenodd"/><path fill="#ffffff" d="M 102.375 46.007812 C 102.765625 46.007812 103.078125 46.320312 103.078125 46.710938 L 103.078125 50.457031 C 103.078125 50.847656 102.765625 51.160156 102.375 51.160156 C 101.988281 51.160156 101.671875 50.847656 101.671875 50.457031 L 101.671875 46.710938 C 101.671875 46.320312 101.988281 46.007812 102.375 46.007812 Z M 102.375 46.007812 " fill-opacity="1" fill-rule="evenodd"/><path fill="#ffffff" d="M 97.691406 55.378906 C 98.078125 55.378906 98.394531 55.695312 98.394531 56.082031 L 98.394531 59.128906 L 110.8125 59.128906 C 111.199219 59.128906 111.515625 59.441406 111.515625 59.832031 C 111.515625 60.21875 111.199219 60.535156 110.8125 60.535156 L 97.691406 60.535156 C 97.300781 60.535156 96.988281 60.21875 96.988281 59.832031 L 96.988281 56.082031 C 96.988281 55.695312 97.300781 55.378906 97.691406 55.378906 Z M 116.433594 55.378906 C 116.824219 55.378906 117.136719 55.695312 117.136719 56.082031 L 117.136719 59.832031 C 117.136719 60.21875 116.824219 60.535156 116.433594 60.535156 L 114.558594 60.535156 C 114.171875 60.535156 113.859375 60.21875 113.859375 59.832031 C 113.859375 59.441406 114.171875 59.128906 114.558594 59.128906 L 115.730469 59.128906 L 115.730469 56.082031 C 115.730469 55.695312 116.046875 55.378906 116.433594 55.378906 Z M 116.433594 55.378906 " fill-opacity="1" fill-rule="evenodd"/><path fill="#ffffff" d="M 111.75 47.882812 C 112.136719 47.882812 112.453125 48.195312 112.453125 48.585938 L 112.453125 57.019531 C 112.453125 57.40625 112.136719 57.722656 111.75 57.722656 C 111.359375 57.722656 111.046875 57.40625 111.046875 57.019531 L 111.046875 48.585938 C 111.046875 48.195312 111.359375 47.882812 111.75 47.882812 Z M 111.75 47.882812 " fill-opacity="1" fill-rule="evenodd"/><path fill="#ffffff" d="M 102.375 51.628906 C 102.765625 51.628906 103.078125 51.945312 103.078125 52.332031 L 103.078125 57.019531 C 103.078125 57.40625 102.765625 57.722656 102.375 57.722656 C 101.988281 57.722656 101.671875 57.40625 101.671875 57.019531 L 101.671875 52.332031 C 101.671875 51.945312 101.988281 51.628906 102.375 51.628906 Z M 102.375 51.628906 " fill-opacity="1" fill-rule="evenodd"/><path fill="#ffffff" d="M 108.441406 53.710938 C 108.714844 53.4375 109.160156 53.4375 109.433594 53.710938 L 111.75 56.023438 L 114.0625 53.710938 C 114.335938 53.4375 114.78125 53.4375 115.058594 53.710938 C 115.332031 53.984375 115.332031 54.429688 115.058594 54.703125 L 112.246094 57.515625 C 111.972656 57.789062 111.527344 57.789062 111.25 57.515625 L 108.441406 54.703125 C 108.164062 54.429688 108.164062 53.984375 108.441406 53.710938 Z M 108.441406 53.710938 " fill-opacity="1" fill-rule="evenodd"/><path fill="#ffffff" d="M 99.066406 53.710938 C 99.34375 53.4375 99.789062 53.4375 100.0625 53.710938 L 102.375 56.023438 L 104.691406 53.710938 C 104.964844 53.4375 105.410156 53.4375 105.683594 53.710938 C 105.960938 53.984375 105.960938 54.429688 105.683594 54.703125 L 102.875 57.515625 C 102.597656 57.789062 102.152344 57.789062 101.878906 57.515625 L 99.066406 54.703125 C 98.792969 54.429688 98.792969 53.984375 99.066406 53.710938 Z M 99.066406 53.710938 " fill-opacity="1" fill-rule="evenodd"/><path fill="#008d75" d="M 348.453125 166.007812 L 321.875 187.464844 C 321.875 224.589844 306.863281 258.128906 282.476562 282.441406 L 282.476562 320.003906 L 320.042969 320.003906 C 353.945312 286.101562 374.964844 239.234375 374.964844 187.464844 Z M 348.453125 166.007812 " fill-opacity="1" fill-rule="nonzero"/><path fill="#2c4290" d="M 187.5 321.835938 L 165.53125 348.417969 L 187.5 375 C 239.273438 375 286.136719 353.984375 320.042969 320.078125 L 282.476562 282.511719 C 258.164062 306.824219 224.625 321.835938 187.5 321.835938 Z M 187.5 321.835938 " fill-opacity="1" fill-rule="nonzero"/><path fill="#2db37f" d="M 187.5 0 L 165.53125 26.582031 L 187.5 53.164062 C 261.679688 53.164062 321.875 113.355469 321.875 187.535156 L 374.964844 187.535156 C 374.964844 83.917969 291.042969 0 187.5 0 Z M 187.5 0 " fill-opacity="1" fill-rule="nonzero"/><path fill="#458fde" d="M 53.125 187.464844 L 26.546875 165.496094 L 0.0351562 187.464844 C 0.0351562 291.007812 83.957031 374.925781 187.5 374.925781 L 187.5 321.835938 C 113.320312 321.835938 53.125 261.644531 53.125 187.464844 Z M 53.125 187.464844 " fill-opacity="1" fill-rule="nonzero"/><path fill="#9acef3" d="M 187.5 53.089844 L 187.5 0 C 83.957031 0 0.0351562 83.917969 0.0351562 187.464844 L 53.125 187.464844 C 53.125 113.285156 113.320312 53.089844 187.5 53.089844 Z M 187.5 53.089844 " fill-opacity="1" fill-rule="nonzero"/><path fill="#fb9d46" d="M 187.5 75.058594 L 146.640625 187.464844 L 187.5 299.867188 C 249.597656 299.867188 299.90625 249.5625 299.90625 187.464844 C 299.90625 125.367188 249.597656 75.058594 187.5 75.058594 Z M 187.5 75.058594 " fill-opacity="1" fill-rule="nonzero"/><path fill="#fdba4c" d="M 75.09375 187.464844 C 75.09375 249.5625 125.402344 299.867188 187.5 299.867188 L 187.5 75.058594 C 125.402344 75.058594 75.09375 125.367188 75.09375 187.464844 Z M 75.09375 187.464844 " fill-opacity="1" fill-rule="nonzero"/><path fill="#fdba4c" d="M 187.5 118.996094 L 162.601562 187.464844 L 187.5 255.929688 C 225.285156 255.929688 255.96875 225.25 255.96875 187.464844 C 255.96875 149.679688 225.285156 118.996094 187.5 118.996094 Z M 187.5 118.996094 " fill-opacity="1" fill-rule="nonzero"/><path fill="#ffd652" d="M 119.03125 187.464844 C 119.03125 225.25 149.714844 255.929688 187.5 255.929688 L 187.5 118.996094 C 149.714844 118.996094 119.03125 149.679688 119.03125 187.464844 Z M 119.03125 187.464844 " fill-opacity="1" fill-rule="nonzero"/><path fill="#ff7452" d="M 198.484375 163.296875 L 187.5 163.296875 L 180.175781 187.464844 L 187.5 211.628906 L 198.484375 211.628906 Z M 198.484375 163.296875 " fill-opacity="1" fill-rule="nonzero"/><path fill="#fb9d46" d="M 176.515625 163.296875 L 187.5 163.296875 L 187.5 211.628906 L 176.515625 211.628906 Z M 176.515625 163.296875 " fill-opacity="1" fill-rule="nonzero"/></svg>