<svg xmlns="http://www.w3.org/2000/svg" xmlns:xlink="http://www.w3.org/1999/xlink" width="500" zoomAndPan="magnify" viewBox="0 0 375 374.999991" height="500" preserveAspectRatio="xMidYMid meet" version="1.0"><defs><clipPath id="b89b1d5830"><path d="M 164.300781 141.105469 L 210.800781 141.105469 L 210.800781 187.605469 L 164.300781 187.605469 Z M 164.300781 141.105469 " clip-rule="nonzero"/></clipPath></defs><g clip-path="url(#b89b1d5830)"><path fill="#ffffff" d="M 209.945312 187.496094 L 165.058594 187.496094 C 164.652344 187.496094 164.320312 187.164062 164.320312 186.757812 L 164.320312 182.566406 C 164.320312 175.589844 169.996094 169.914062 176.972656 169.914062 L 198.027344 169.914062 C 205.003906 169.914062 210.679688 175.589844 210.679688 182.566406 L 210.679688 186.757812 C 210.679688 187.164062 210.351562 187.496094 209.945312 187.496094 Z M 187.5 167.933594 C 180.101562 167.933594 174.085938 161.917969 174.085938 154.519531 C 174.085938 147.121094 180.101562 141.105469 187.5 141.105469 C 194.898438 141.105469 200.917969 147.121094 200.917969 154.519531 C 200.917969 161.917969 194.898438 167.933594 187.5 167.933594 Z M 187.5 167.933594 " fill-opacity="1" fill-rule="nonzero"/></g><path fill="#1e90ff" d="M 320.082031 54.917969 C 284.667969 19.503906 237.582031 0 187.5 0 C 137.417969 0 90.332031 19.503906 54.917969 54.917969 C 19.503906 90.332031 0 137.417969 0 187.5 C 0 237.582031 19.503906 284.667969 54.917969 320.082031 C 90.332031 355.496094 137.417969 375 187.5 375 C 237.582031 375 284.667969 355.496094 320.082031 320.082031 C 355.5 284.671875 375 237.582031 375 187.5 C 375 137.417969 355.496094 90.332031 320.082031 54.917969 Z M 299.65625 311.183594 L 299.65625 307.507812 C 299.65625 274.929688 273.246094 248.523438 240.667969 248.523438 L 138.421875 248.523438 C 105.84375 248.523438 79.429688 274.933594 79.429688 307.507812 L 79.429688 314.769531 C 43.375 284.101562 20.453125 238.429688 20.453125 187.5 C 20.453125 95.390625 95.390625 20.453125 187.5 20.453125 C 279.609375 20.453125 354.546875 95.390625 354.546875 187.5 C 354.546875 236.480469 333.351562 280.605469 299.65625 311.183594 Z M 299.65625 311.183594 " fill-opacity="1" fill-rule="nonzero"/><path fill="#1e90ff" d="M 255.339844 164.65625 C 255.339844 165.773438 255.3125 166.886719 255.253906 168.003906 C 255.199219 169.117188 255.117188 170.230469 255.007812 171.339844 C 254.898438 172.449219 254.765625 173.558594 254.601562 174.660156 C 254.4375 175.765625 254.246094 176.863281 254.027344 177.957031 C 253.808594 179.054688 253.566406 180.140625 253.292969 181.222656 C 253.023438 182.304688 252.726562 183.382812 252.402344 184.449219 C 252.078125 185.515625 251.726562 186.574219 251.351562 187.625 C 250.976562 188.675781 250.574219 189.71875 250.148438 190.75 C 249.722656 191.78125 249.269531 192.800781 248.792969 193.808594 C 248.316406 194.816406 247.8125 195.8125 247.289062 196.796875 C 246.761719 197.78125 246.210938 198.753906 245.636719 199.710938 C 245.0625 200.667969 244.46875 201.609375 243.847656 202.535156 C 243.226562 203.464844 242.585938 204.375 241.921875 205.273438 C 241.253906 206.167969 240.570312 207.046875 239.863281 207.910156 C 239.152344 208.773438 238.425781 209.617188 237.675781 210.445312 C 236.925781 211.269531 236.15625 212.078125 235.367188 212.867188 C 234.578125 213.65625 233.769531 214.425781 232.945312 215.175781 C 232.117188 215.925781 231.273438 216.652344 230.410156 217.363281 C 229.546875 218.070312 228.667969 218.753906 227.773438 219.421875 C 226.875 220.085938 225.964844 220.726562 225.035156 221.347656 C 224.109375 221.96875 223.167969 222.5625 222.210938 223.136719 C 221.253906 223.710938 220.28125 224.261719 219.296875 224.789062 C 218.3125 225.3125 217.316406 225.816406 216.308594 226.292969 C 215.300781 226.769531 214.28125 227.222656 213.25 227.648438 C 212.21875 228.074219 211.175781 228.476562 210.125 228.851562 C 209.074219 229.226562 208.015625 229.578125 206.949219 229.902344 C 205.882812 230.226562 204.804688 230.523438 203.722656 230.792969 C 202.640625 231.066406 201.554688 231.308594 200.457031 231.527344 C 199.363281 231.746094 198.265625 231.9375 197.160156 232.101562 C 196.058594 232.265625 194.949219 232.398438 193.839844 232.507812 C 192.730469 232.617188 191.617188 232.699219 190.503906 232.753906 C 189.386719 232.8125 188.273438 232.839844 187.15625 232.839844 C 186.042969 232.839844 184.925781 232.8125 183.8125 232.753906 C 182.699219 232.699219 181.585938 232.617188 180.472656 232.507812 C 179.363281 232.398438 178.257812 232.265625 177.152344 232.101562 C 176.050781 231.9375 174.949219 231.746094 173.855469 231.527344 C 172.761719 231.308594 171.671875 231.066406 170.589844 230.792969 C 169.507812 230.523438 168.433594 230.226562 167.367188 229.902344 C 166.296875 229.578125 165.238281 229.226562 164.1875 228.851562 C 163.136719 228.476562 162.097656 228.074219 161.066406 227.648438 C 160.035156 227.222656 159.015625 226.769531 158.007812 226.292969 C 156.996094 225.816406 156 225.3125 155.015625 224.789062 C 154.035156 224.261719 153.0625 223.710938 152.105469 223.136719 C 151.148438 222.5625 150.207031 221.96875 149.277344 221.347656 C 148.351562 220.726562 147.4375 220.085938 146.542969 219.421875 C 145.644531 218.753906 144.765625 218.070312 143.902344 217.363281 C 143.042969 216.652344 142.195312 215.925781 141.371094 215.175781 C 140.542969 214.425781 139.734375 213.65625 138.945312 212.867188 C 138.15625 212.078125 137.386719 211.269531 136.640625 210.445312 C 135.890625 209.617188 135.160156 208.773438 134.453125 207.910156 C 133.746094 207.046875 133.058594 206.167969 132.394531 205.273438 C 131.730469 204.375 131.085938 203.464844 130.46875 202.535156 C 129.847656 201.609375 129.25 200.667969 128.675781 199.710938 C 128.101562 198.753906 127.554688 197.78125 127.027344 196.796875 C 126.5 195.8125 126 194.816406 125.523438 193.808594 C 125.046875 192.800781 124.59375 191.78125 124.167969 190.75 C 123.738281 189.71875 123.339844 188.675781 122.960938 187.625 C 122.585938 186.574219 122.238281 185.515625 121.914062 184.449219 C 121.589844 183.382812 121.292969 182.304688 121.019531 181.222656 C 120.75 180.140625 120.503906 179.054688 120.285156 177.957031 C 120.070312 176.863281 119.878906 175.765625 119.714844 174.660156 C 119.550781 173.558594 119.414062 172.449219 119.304688 171.339844 C 119.195312 170.230469 119.113281 169.117188 119.058594 168.003906 C 119.003906 166.886719 118.976562 165.773438 118.976562 164.65625 C 118.976562 163.542969 119.003906 162.425781 119.058594 161.3125 C 119.113281 160.199219 119.195312 159.085938 119.304688 157.972656 C 119.414062 156.863281 119.550781 155.757812 119.714844 154.652344 C 119.878906 153.550781 120.070312 152.449219 120.285156 151.355469 C 120.503906 150.261719 120.75 149.171875 121.019531 148.089844 C 121.292969 147.007812 121.589844 145.933594 121.914062 144.867188 C 122.238281 143.796875 122.585938 142.738281 122.960938 141.6875 C 123.339844 140.636719 123.738281 139.597656 124.167969 138.566406 C 124.59375 137.535156 125.046875 136.515625 125.523438 135.507812 C 126 134.496094 126.5 133.5 127.027344 132.515625 C 127.554688 131.535156 128.101562 130.5625 128.675781 129.605469 C 129.25 128.648438 129.847656 127.707031 130.46875 126.777344 C 131.085938 125.851562 131.730469 124.9375 132.394531 124.042969 C 133.058594 123.144531 133.746094 122.265625 134.453125 121.402344 C 135.160156 120.542969 135.890625 119.695312 136.640625 118.871094 C 137.386719 118.042969 138.15625 117.234375 138.945312 116.445312 C 139.734375 115.65625 140.542969 114.886719 141.371094 114.140625 C 142.195312 113.390625 143.042969 112.660156 143.902344 111.953125 C 144.765625 111.246094 145.644531 110.558594 146.542969 109.894531 C 147.4375 109.230469 148.351562 108.585938 149.277344 107.96875 C 150.207031 107.347656 151.148438 106.75 152.105469 106.175781 C 153.0625 105.601562 154.035156 105.054688 155.015625 104.527344 C 156 104 156.996094 103.5 158.007812 103.023438 C 159.015625 102.546875 160.035156 102.09375 161.066406 101.667969 C 162.097656 101.238281 163.136719 100.839844 164.1875 100.460938 C 165.238281 100.085938 166.296875 99.738281 167.367188 99.414062 C 168.433594 99.089844 169.507812 98.792969 170.589844 98.519531 C 171.671875 98.25 172.761719 98.003906 173.855469 97.785156 C 174.949219 97.570312 176.050781 97.378906 177.152344 97.214844 C 178.257812 97.050781 179.363281 96.914062 180.472656 96.804688 C 181.585938 96.695312 182.699219 96.613281 183.8125 96.558594 C 184.925781 96.503906 186.042969 96.476562 187.15625 96.476562 C 188.273438 96.476562 189.386719 96.503906 190.503906 96.558594 C 191.617188 96.613281 192.730469 96.695312 193.839844 96.804688 C 194.949219 96.914062 196.058594 97.050781 197.160156 97.214844 C 198.265625 97.378906 199.363281 97.570312 200.457031 97.785156 C 201.554688 98.003906 202.640625 98.25 203.722656 98.519531 C 204.804688 98.792969 205.882812 99.089844 206.949219 99.414062 C 208.015625 99.738281 209.074219 100.085938 210.125 100.460938 C 211.175781 100.839844 212.21875 101.238281 213.25 101.667969 C 214.28125 102.09375 215.300781 102.546875 216.308594 103.023438 C 217.316406 103.5 218.3125 104 219.296875 104.527344 C 220.28125 105.054688 221.253906 105.601562 222.210938 106.175781 C 223.167969 106.75 224.109375 107.347656 225.035156 107.96875 C 225.964844 108.585938 226.875 109.230469 227.773438 109.894531 C 228.667969 110.558594 229.546875 111.246094 230.410156 111.953125 C 231.273438 112.660156 232.117188 113.390625 232.945312 114.140625 C 233.769531 114.886719 234.578125 115.65625 235.367188 116.445312 C 236.15625 117.234375 236.925781 118.042969 237.675781 118.871094 C 238.425781 119.695312 239.152344 120.542969 239.863281 121.402344 C 240.570312 122.265625 241.253906 123.144531 241.921875 124.042969 C 242.585938 124.9375 243.226562 125.851562 243.847656 126.777344 C 244.46875 127.707031 245.0625 128.648438 245.636719 129.605469 C 246.210938 130.5625 246.761719 131.535156 247.289062 132.515625 C 247.8125 133.5 248.316406 134.496094 248.792969 135.507812 C 249.269531 136.515625 249.722656 137.535156 250.148438 138.566406 C 250.574219 139.597656 250.976562 140.636719 251.351562 141.6875 C 251.726562 142.738281 252.078125 143.796875 252.402344 144.867188 C 252.726562 145.933594 253.023438 147.007812 253.292969 148.089844 C 253.566406 149.171875 253.808594 150.261719 254.027344 151.355469 C 254.246094 152.449219 254.4375 153.550781 254.601562 154.652344 C 254.765625 155.757812 254.898438 156.863281 255.007812 157.972656 C 255.117188 159.085938 255.199219 160.199219 255.253906 161.3125 C 255.3125 162.425781 255.339844 163.542969 255.339844 164.65625 Z M 255.339844 164.65625 " fill-opacity="1" fill-rule="nonzero"/></svg>